<?xml version="1.0" encoding="utf-8"?><svg xmlns="http://www.w3.org/2000/svg" xmlns:xlink="http://www.w3.org/1999/xlink"><symbol viewBox="0 0 612 612" id="facebook" xmlns="http://www.w3.org/2000/svg"><path d="M612 306C612 137.004 474.995 0 306 0 137.004 0 0 137.004 0 306c0 168.995 137.004 306 306 306 168.995 0 306-137.005 306-306zm-584.182 0C27.818 152.36 152.36 27.818 306 27.818S584.182 152.36 584.182 306 459.64 584.182 306 584.182 27.818 459.64 27.818 306z"/><path d="M317.739 482.617V306h58.279l9.208-58.529h-67.487v-29.348c0-15.272 5.007-29.849 26.928-29.849h43.813v-58.418h-62.201c-52.298 0-66.569 34.438-66.569 82.175v35.413h-35.885V306h35.885v176.617h58.029z"/></symbol><symbol viewBox="0 0 96.124 96.123" id="footer_facebook" xmlns="http://www.w3.org/2000/svg"><path d="M72.089.02L59.624 0C45.62 0 36.57 9.285 36.57 23.656v10.907H24.037a1.96 1.96 0 0 0-1.96 1.961v15.803a1.96 1.96 0 0 0 1.96 1.96H36.57v39.876a1.96 1.96 0 0 0 1.96 1.96h16.352a1.96 1.96 0 0 0 1.96-1.96V54.287h14.654a1.96 1.96 0 0 0 1.96-1.96l.006-15.803a1.963 1.963 0 0 0-1.961-1.961H56.842v-9.246c0-4.444 1.059-6.7 6.848-6.7l8.397-.003a1.96 1.96 0 0 0 1.959-1.96V1.98A1.96 1.96 0 0 0 72.089.02z"/></symbol><symbol viewBox="0 0 475.092 475.092" id="footer_google" xmlns="http://www.w3.org/2000/svg"><path d="M273.372 302.498a148.384 148.384 0 0 0-16.7-18.842c-6.091-5.804-12.183-11.088-18.271-15.845-6.092-4.757-11.659-9.329-16.702-13.709-5.042-4.374-9.135-8.945-12.275-13.702-3.14-4.757-4.711-9.61-4.711-14.558 0-6.855 2.19-13.278 6.567-19.274 4.377-5.996 9.707-11.799 15.986-17.417 6.28-5.617 12.559-11.753 18.844-18.415 6.276-6.665 11.604-15.465 15.985-26.412 4.373-10.944 6.563-23.458 6.563-37.542 0-16.75-3.713-32.835-11.136-48.25-7.423-15.418-17.89-27.412-31.405-35.976h38.54L303.2 0H178.441c-17.699 0-35.498 1.906-53.384 5.72-26.453 5.9-48.723 19.368-66.806 40.397-18.08 21.033-27.122 44.873-27.122 71.52 0 28.171 10.138 51.583 30.406 70.233 20.269 18.649 44.585 27.978 72.945 27.978 5.71 0 12.371-.478 19.985-1.427-.381 1.521-1.043 3.567-1.997 6.136s-1.715 4.62-2.286 6.14c-.57 1.521-1.047 3.375-1.425 5.566a38.99 38.99 0 0 0-.571 6.71c0 12.563 6.086 26.744 18.271 42.541-14.465.387-28.737 1.67-42.825 3.86-14.084 2.19-28.833 5.616-44.252 10.28-15.417 4.661-29.217 11.42-41.396 20.27-12.182 8.854-21.317 19.366-27.408 31.549C3.533 361.559.01 374.405.01 386.017c0 12.751 2.857 24.314 8.565 34.69 5.708 10.369 13.035 18.842 21.982 25.406 8.945 6.57 19.273 12.083 30.978 16.562 11.704 4.47 23.315 7.659 34.829 9.562 11.516 1.903 22.888 2.854 34.119 2.854 51.007 0 90.981-12.464 119.909-37.397 26.648-23.223 39.971-50.062 39.971-80.517 0-10.855-1.57-20.984-4.712-30.409-3.141-9.431-7.231-17.514-12.279-24.27zM163.311 198.722c-9.707 0-18.937-2.475-27.694-7.426-8.757-4.95-16.18-11.374-22.27-19.273-6.088-7.898-11.418-16.796-15.987-26.695-4.567-9.896-7.944-19.792-10.135-29.692-2.19-9.895-3.284-19.318-3.284-28.265 0-18.271 4.854-33.974 14.562-47.108 9.705-13.134 23.411-19.701 41.112-19.701 12.563 0 23.935 3.899 34.118 11.704 10.183 7.804 18.177 17.701 23.984 29.692a187.496 187.496 0 0 1 13.417 37.257c3.14 12.847 4.711 24.983 4.711 36.403 0 19.036-4.139 34.317-12.419 45.833-8.282 11.513-21.651 17.271-40.115 17.271zm78.94 214.401c-5.23 8.949-12.319 15.94-21.267 20.981-8.946 5.048-18.509 8.758-28.693 11.14-10.183 2.385-20.889 3.572-32.12 3.572-12.182 0-24.27-1.431-36.258-4.284-11.99-2.851-23.459-7.187-34.403-12.991-10.944-5.8-19.795-13.798-26.551-23.982-6.757-10.184-10.135-21.744-10.135-34.69 0-11.419 2.568-21.601 7.708-30.55 5.142-8.945 11.709-16.084 19.702-21.408 7.994-5.332 17.319-9.713 27.979-13.131 10.66-3.433 20.937-5.808 30.833-7.139 9.895-1.335 19.985-1.995 30.262-1.995 6.283 0 11.043.191 14.277.567 1.143.767 4.043 2.759 8.708 5.996s7.804 5.428 9.423 6.57c1.615 1.137 4.567 3.326 8.85 6.563 4.281 3.237 7.327 5.661 9.135 7.279 1.803 1.618 4.421 4.045 7.849 7.279 3.424 3.237 5.948 6.043 7.566 8.422a982.05 982.05 0 0 0 5.996 8.702c2.38 3.433 4.043 6.715 4.998 9.855a158.985 158.985 0 0 1 2.707 10.277c.855 3.72 1.283 7.569 1.283 11.57.005 11.987-2.613 22.456-7.849 31.397z"/><path d="M401.998 73.089V0h-36.549v73.089h-73.091v36.547h73.091v73.089h36.549v-73.089h73.083V73.089z"/></symbol><symbol viewBox="0 0 370.88 370.88" id="footer_message" xmlns="http://www.w3.org/2000/svg"><path d="M355.6 66.16H15.28C6.841 66.16 0 73.001 0 81.44v208c0 8.439 6.841 15.28 15.28 15.28H355.6c8.439 0 15.28-6.841 15.28-15.28v-208c0-8.439-6.841-15.28-15.28-15.28zm-340.32 12H355.6a3.28 3.28 0 0 1 3.12 2.32L185.44 188.72 12.16 80.48a3.28 3.28 0 0 1 3.12-2.32zm-3.28 16L136.64 172 12 270.88V94.16zm346.88 195.2a3.28 3.28 0 0 1-3.28 3.28H15.28a3.28 3.28 0 0 1-3.28-3.28v-3.2l135.44-107.04 34.8 21.76a5.999 5.999 0 0 0 6.4 0l34.8-21.76 135.44 107.04v3.2zm0-18.48l-124.96-98.56 124.96-77.44v176z"/></symbol><symbol viewBox="0 0 27.442 27.442" id="footer_phone" xmlns="http://www.w3.org/2000/svg"><path d="M19.494 0H7.948a1.997 1.997 0 0 0-1.997 1.999v23.446c0 1.102.892 1.997 1.997 1.997h11.546a1.998 1.998 0 0 0 1.997-1.997V1.999A1.999 1.999 0 0 0 19.494 0zm-8.622 1.214h5.7c.144 0 .261.215.261.481s-.117.482-.261.482h-5.7c-.145 0-.26-.216-.26-.482s.115-.481.26-.481zm2.85 24.255a1.275 1.275 0 1 1 0-2.55 1.275 1.275 0 0 1 0 2.55zm6.273-4.369H7.448V3.373h12.547V21.1z"/></symbol><symbol viewBox="0 0 486.392 486.392" id="footer_pinterest" xmlns="http://www.w3.org/2000/svg"><path d="M430.149 135.248C416.865 39.125 321.076-9.818 218.873 1.642 138.071 10.701 57.512 76.03 54.168 169.447c-2.037 57.029 14.136 99.801 68.399 111.84 23.499-41.586-7.569-50.676-12.433-80.802C90.222 77.367 252.16-6.718 336.975 79.313c58.732 59.583 20.033 242.77-74.57 223.71-90.621-18.179 44.383-164.005-27.937-192.611-58.793-23.286-90.013 71.135-62.137 118.072-16.355 80.711-51.557 156.709-37.3 257.909 46.207-33.561 61.802-97.734 74.57-164.704 23.225 14.136 35.659 28.758 65.268 31.038 109.195 8.48 170.267-109.014 155.28-217.479z"/></symbol><symbol viewBox="0 -47 512 512" id="footer_twitter" xmlns="http://www.w3.org/2000/svg"><path d="M512 55.965c-32.207 1.484-31.504 1.363-35.145 1.668L495.93 3.16s-59.54 21.902-74.633 25.82c-39.64-35.628-98.563-37.203-140.688-11.312-34.496 21.207-53.011 57.625-46.836 100.191C166.637 108.543 110.07 76.72 65.41 23.07L51.285 6.105 40.73 25.488C27.39 49.98 22.96 77.984 28.254 104.34a113.287 113.287 0 0 0 10.976 30.78l-12.117-4.695-1.437 20.246c-1.457 20.566 5.39 44.574 18.32 64.215a114.185 114.185 0 0 0 14.27 17.597l-6.262-.96 7.64 23.199c10.043 30.48 30.903 54.062 57.973 67.172-27.035 11.472-48.875 18.793-84.773 30.601L0 363.293l30.336 16.586c11.566 6.324 52.437 27.445 92.82 33.781 89.766 14.078 190.832 2.613 258.871-58.664 57.309-51.613 76.114-125.031 72.207-201.433-.59-11.567 2.579-22.606 8.922-31.079 12.707-16.964 48.766-66.406 48.844-66.52zm-72.832 48.55c-10.535 14.067-15.813 32.032-14.867 50.579 3.941 77.066-17.028 136.832-62.328 177.629-52.918 47.66-138.274 66.367-234.172 51.324-17.367-2.723-35.317-8.82-50.172-14.91 30.098-10.356 53.34-19.586 90.875-37.352l52.398-24.8-57.851-3.704c-27.711-1.773-50.785-15.203-64.969-37.008a103.763 103.763 0 0 0 22.023-3.671l55.176-15.368-55.636-13.625c-27.036-6.62-42.446-22.797-50.614-35.203-5.363-8.152-8.867-16.504-10.969-24.203 5.579 1.496 12.083 2.563 22.57 3.602l51.497 5.093-40.8-31.828c-29.4-22.93-41.18-57.379-32.544-90.496 91.75 95.164 199.477 88.012 210.32 90.528-2.386-23.184-2.449-23.239-3.074-25.446-13.886-49.09 16.547-74.015 30.274-82.453 28.672-17.621 74.183-20.277 105.707 8.754 6.808 6.266 16.015 8.73 24.633 6.59 7.734-1.922 14.082-3.957 20.296-6.172L434.004 89.32l16.516.012a8240.32 8240.32 0 0 1-11.352 15.184zm0 0"/></symbol><symbol viewBox="0 0 612 612" id="google" xmlns="http://www.w3.org/2000/svg"><path d="M349.146 402.251c0-30.016-17.387-44.815-36.525-60.922l-15.662-12.185c-4.785-3.895-11.294-9.124-11.294-18.693 0-9.57 6.537-15.662 12.184-21.309 18.249-14.354 36.526-29.571 36.526-61.756 0-33.076-20.892-50.462-30.878-58.724h26.956L358.271 153h-89.603c-23.479 0-53.049 3.478-77.863 23.924-18.693 16.079-27.818 38.278-27.818 58.279 0 33.911 26.093 68.294 72.188 68.294 4.368 0 9.125-.445 13.937-.863-2.17 5.23-4.34 9.569-4.34 16.97 0 13.464 6.955 21.753 13.047 29.57-19.556 1.308-56.109 3.478-83.065 20.001-25.676 15.217-33.493 37.416-33.493 53.077 0 32.186 30.461 62.201 93.525 62.201 74.775.001 114.36-41.337 114.36-82.202zM255.621 291.34c-37.415 0-54.384-48.292-54.384-77.418 0-11.322 2.17-23.034 9.569-32.186 6.955-8.707 19.139-14.382 30.461-14.382 36.108 0 54.802 48.738 54.802 80.033 0 7.845-.862 21.754-10.877 31.768-6.955 6.955-18.694 12.157-29.571 12.185zm.445 174.837c-46.54 0-76.556-22.171-76.556-53.049s27.846-41.311 37.416-44.787c18.276-6.093 41.755-6.982 45.677-6.982 4.34 0 6.51 0 9.987.445 33.076 23.479 47.402 35.218 47.402 57.416 0 26.956-22.171 46.957-63.926 46.957z"/><path d="M353.068 317.768h47.096v47.068h23.535v-47.068h47.069v-23.535h-47.069v-47.068h-23.535v47.068h-47.096z"/><path d="M612 306C612 137.004 474.995 0 306 0 137.004 0 0 137.004 0 306c0 168.995 137.004 306 306 306 168.995 0 306-137.005 306-306zm-584.182 0C27.818 152.36 152.36 27.818 306 27.818S584.182 152.36 584.182 306 459.64 584.182 306 584.182 27.818 459.64 27.818 306z"/></symbol><symbol viewBox="0 0 31.059 31.059" id="pinterest" xmlns="http://www.w3.org/2000/svg"><path d="M15.529 31.059C6.966 31.059 0 24.092 0 15.529S6.966 0 15.529 0c8.563 0 15.529 6.967 15.529 15.529s-6.966 15.53-15.529 15.53zm0-29.284c-7.585 0-13.755 6.17-13.755 13.754s6.17 13.755 13.755 13.755c7.584 0 13.754-6.171 13.754-13.755 0-7.584-6.17-13.754-13.754-13.754z"/><path d="M12.749 24.944a.973.973 0 0 1-.946-1.206l2.271-9.24a.973.973 0 0 1 1.894.453c-.123.539-.338 2.26.281 3.035.146.184.418.428 1.097.428 1.434 0 2.951-2.326 2.951-4.524 0-.714-.161-1.727-.925-2.491-.745-.746-1.915-1.123-3.479-1.123-4.135 0-4.927 2.609-5.071 3.41-.222 1.234.215 2.43.994 2.72a.973.973 0 1 1-.679 1.825c-1.69-.629-2.63-2.686-2.232-4.891.416-2.312 2.496-5.013 6.988-5.013 2.099 0 3.733.569 4.857 1.694.978.979 1.495 2.316 1.495 3.868 0 3.056-2.095 6.472-4.899 6.472-1.246 0-2.014-.498-2.466-.982l-1.185 4.824a.978.978 0 0 1-.946.741z"/></symbol><symbol viewBox="0 0 512 512" id="twitter" xmlns="http://www.w3.org/2000/svg"><path d="M256 0C114.609 0 0 114.609 0 256c0 141.392 114.609 256 256 256 141.392 0 256-114.608 256-256C512 114.609 397.392 0 256 0zm0 472c-119.297 0-216-96.702-216-216 0-119.297 96.703-216 216-216 119.298 0 216 96.703 216 216 0 119.298-96.702 216-216 216z"/><path d="M384 170.922c-4.312 2.562-17.248 7.671-29.312 8.953 7.735-4.491 19.188-19.203 22.016-30.89-7.436 5.109-24.516 12.562-32.95 12.562 0 0 0 .023.016.039C334.141 150.75 320.608 144 305.577 144c-29.154 0-52.81 25.461-52.81 56.875 0 4.36.481 8.595 1.357 12.672h-.017c-39.562-1.094-85.811-22.446-111.874-59-16 29.852-2.156 63.046 16.015 75.141-6.203.516-17.671-.766-23.061-6.407-.375 19.797 8.484 46.048 40.735 55.562-6.221 3.61-17.19 2.579-21.984 1.781 1.687 16.75 23.437 38.623 47.202 38.623-8.47 10.534-37.373 29.706-73.141 23.596C152.298 358.782 180.625 368 210.608 368c85.205 0 151.376-74.359 147.814-166.093 0-.11-.031-.219-.031-.313 0-.25.031-.5.031-.719 0-.281-.031-.562-.031-.859 7.75-5.688 18.155-15.782 25.609-29.094z"/></symbol></svg>